<?xml version="1.0" encoding="utf-8"?><svg xmlns="http://www.w3.org/2000/svg" xmlns:xlink="http://www.w3.org/1999/xlink" width="200px" height="200px" viewBox="0 0 100 100" preserveAspectRatio="xMidYMid" style="display:block;background-color:rgb(255, 255, 255);animation-play-state:paused" ><g transform="translate(80,50)" style="animation-play-state:paused" ><g transform="rotate(0)" style="animation-play-state:paused" ><circle cx="0" cy="0" r="6" fill="#ff727d" fill-opacity="0.125" transform="matrix(1.0625,0,0,1.0625,0,0)" style="animation-play-state:paused" ></circle></g></g>
<g transform="translate(71.21320343559643,71.21320343559643)" style="animation-play-state:paused" ><g transform="rotate(45)" style="animation-play-state:paused" ><circle cx="0" cy="0" r="6" fill="#ff727d" fill-opacity="0.25" transform="matrix(1.125,0,0,1.125,0,0)" style="animation-play-state:paused" ></circle></g></g>
<g transform="translate(50,80)" style="animation-play-state:paused" ><g transform="rotate(90)" style="animation-play-state:paused" ><circle cx="0" cy="0" r="6" fill="#ff727d" fill-opacity="0.375" transform="matrix(1.1875,0,0,1.1875,0,0)" style="animation-play-state:paused" ></circle></g></g>
<g transform="translate(28.786796564403577,71.21320343559643)" style="animation-play-state:paused" ><g transform="rotate(135)" style="animation-play-state:paused" ><circle cx="0" cy="0" r="6" fill="#ff727d" fill-opacity="0.5" transform="matrix(1.25,0,0,1.25,0,0)" style="animation-play-state:paused" ></circle></g></g>
<g transform="translate(20,50.00000000000001)" style="animation-play-state:paused" ><g transform="rotate(180)" style="animation-play-state:paused" ><circle cx="0" cy="0" r="6" fill="#ff727d" fill-opacity="0.625" transform="matrix(1.3125,0,0,1.3125,0,0)" style="animation-play-state:paused" ></circle></g></g>
<g transform="translate(28.78679656440357,28.786796564403577)" style="animation-play-state:paused" ><g transform="rotate(225)" style="animation-play-state:paused" ><circle cx="0" cy="0" r="6" fill="#ff727d" fill-opacity="0.75" transform="matrix(1.375,0,0,1.375,0,0)" style="animation-play-state:paused" ></circle></g></g>
<g transform="translate(49.99999999999999,20)" style="animation-play-state:paused" ><g transform="rotate(270)" style="animation-play-state:paused" ><circle cx="0" cy="0" r="6" fill="#ff727d" fill-opacity="0.875" transform="matrix(1.4375,0,0,1.4375,0,0)" style="animation-play-state:paused" ></circle></g></g>
<g transform="translate(71.21320343559643,28.78679656440357)" style="animation-play-state:paused" ><g transform="rotate(315)" style="animation-play-state:paused" ><circle cx="0" cy="0" r="6" fill="#ff727d" fill-opacity="1" transform="matrix(1.5,0,0,1.5,0,0)" style="animation-play-state:paused" ></circle></g></g><!-- generated by https://loading.io/ --></svg>